<?xml version="1.0" encoding="UTF-8" standalone="no"?>
<svg
   xmlns:dc="http://purl.org/dc/elements/1.1/"
   xmlns:cc="http://creativecommons.org/ns#"
   xmlns:rdf="http://www.w3.org/1999/02/22-rdf-syntax-ns#"
   xmlns:svg="http://www.w3.org/2000/svg"
   xmlns="http://www.w3.org/2000/svg"
   xmlns:xlink="http://www.w3.org/1999/xlink"
   xmlns:sodipodi="http://sodipodi.sourceforge.net/DTD/sodipodi-0.dtd"
   xmlns:inkscape="http://www.inkscape.org/namespaces/inkscape"
   version="1.1"
   id="Wikimedia Logo"
   viewBox="-400 -525 813.75 393.75"
   width="620"
   height="300"
   inkscape:version="0.48.2 r9819"
   sodipodi:docname="splashscreen.svg"
   inkscape:export-filename="C:\Users\Brion\Desktop\GitHub\CommonsMetro\scratch\splashscreen.scale-180.png"
   inkscape:export-xdpi="162"
   inkscape:export-ydpi="162">
  <metadata
     id="metadata3152">
    <rdf:RDF>
      <cc:Work
         rdf:about="">
        <dc:format>image/svg+xml</dc:format>
        <dc:type
           rdf:resource="http://purl.org/dc/dcmitype/StillImage" />
        <dc:title></dc:title>
      </cc:Work>
    </rdf:RDF>
  </metadata>
  <sodipodi:namedview
     pagecolor="#ffffff"
     bordercolor="#666666"
     borderopacity="1"
     objecttolerance="10"
     gridtolerance="10"
     guidetolerance="10"
     inkscape:pageopacity="0"
     inkscape:pageshadow="2"
     inkscape:window-width="1440"
     inkscape:window-height="841"
     id="namedview3150"
     showgrid="false"
     inkscape:zoom="0.834386"
     inkscape:cx="304"
     inkscape:cy="160.30279"
     inkscape:window-x="-8"
     inkscape:window-y="-8"
     inkscape:window-maximized="1"
     inkscape:current-layer="Wikimedia Logo" />
  <defs
     id="defs3072">
    <clipPath
       id="boundary">
      <circle
         r="298"
         id="circle3075"
         cx="0"
         cy="0"
         sodipodi:cx="0"
         sodipodi:cy="0"
         sodipodi:rx="298"
         sodipodi:ry="298" />
    </clipPath>
  </defs>
  <circle
     r="100"
     id="circle3077"
     cx="0"
     cy="0"
     sodipodi:cx="0"
     sodipodi:cy="0"
     sodipodi:rx="100"
     sodipodi:ry="100"
     style="fill:#970000;stroke:none"
     transform="matrix(0.32162082,0,0,0.32182831,-2.2245776,-329.23729)" />
  <g
     id="g3079"
     style="fill:#006499;stroke:#006499"
     transform="matrix(0.32162082,0,0,0.32182831,-2.2245776,-329.23729)">
    <g
       clip-path="url(#boundary)"
       id="g3081">
      <g
         id="arrow">
        <line
           x1="0"
           y1="300"
           x2="0"
           y2="180"
           id="line3084"
           style="stroke-width:22" />
        <path
           d="M -43,185 0,110 43,185 z"
           id="path3086"
           inkscape:connector-curvature="0"
           style="stroke:none" />
      </g>
      <g
         id="three_arrows_lhs">
        <use
           xlink:href="#arrow"
           transform="matrix(0.70710678,0.70710678,-0.70710678,0.70710678,0,0)"
           id="use3089"
           x="0"
           y="0"
           width="798"
           height="1050" />
        <use
           xlink:href="#arrow"
           transform="matrix(0,1,-1,0,0,0)"
           id="use3091"
           x="0"
           y="0"
           width="798"
           height="1050" />
        <use
           xlink:href="#arrow"
           transform="matrix(-0.70710678,0.70710678,-0.70710678,-0.70710678,0,0)"
           id="use3093"
           x="0"
           y="0"
           width="798"
           height="1050" />
      </g>
      <use
         xlink:href="#three_arrows_lhs"
         transform="scale(-1,1)"
         id="use3095"
         x="0"
         y="0"
         width="798"
         height="1050" />
    </g>
    <path
       id="blue_path"
       transform="matrix(0.70710678,-0.70710678,0.70710678,0.70710678,0,0)"
       d="M 0,-256 A 256,256 0 1 0 256,0 c 0,-100 -101,-150 -6,-275"
       inkscape:connector-curvature="0"
       style="fill:none;stroke-width:84" />
    <path
       id="arrow_top"
       d="m -23,-515 c 0,0 -36,135 -80,185 -44,50 116,-62 170,-5 54,57 -90,-180 -90,-180 z"
       inkscape:connector-curvature="0"
       style="stroke:none" />
  </g>
  <defs
     id="defs3099">
    <path
       id="W"
       d="M 0,720 320,0 H 464 L 659,438.75 854,0 h 144 l 320,720 H 1121 L 926,281.25 731,720 H 587 L 392,281.25 197,720 z"
       inkscape:connector-curvature="0" />
    <path
       id="I"
       d="M 0,0 H 180 V 720 H 0 z"
       inkscape:connector-curvature="0" />
    <path
       id="K"
       d="M 0,0 H 180 V 720 H 0 z M 90,360 450,0 H 705 L 345,360 705,720 H 450 z"
       inkscape:connector-curvature="0" />
    <path
       id="M"
       d="M 0,0 H 180 V 466 L 400,246 620,466 V 0 H 800 V 720 H 620 L 400,500 180,720 H 0 z"
       inkscape:connector-curvature="0" />
    <path
       id="E"
       d="M 0,0 H 520 V 150 H 180 V 300 H 520 V 450 H 180 V 570 H 520 V 720 H 0 z"
       inkscape:connector-curvature="0" />
    <path
       id="D"
       d="m 0,0 h 360 a 360,360 0 0 1 0,720 H 0 z m 180,150 v 420 h 120 a 210,210 0 0 0 0,-420 z"
       inkscape:connector-curvature="0" />
    <path
       id="A"
       d="M 0,0 H 196 L 390,453 584,0 H 780 L 480,720 H 300 z M 180,120 H 630 V 240 H 180 z"
       inkscape:connector-curvature="0" />
    <path
       id="C"
       d="m 684,504 a 276,204 0 1 1 0,-288 V 60 a 432,360 0 1 0 0,600 z"
       inkscape:connector-curvature="0" />
    <path
       id="O"
       d="m 0,360 a 408,360 0 0 0 816,0 408,360 0 0 0 -816,0 m 204,0 a 204,204 0 0 1 408,0 204,204 0 0 1 -408,0"
       inkscape:connector-curvature="0" />
    <path
       id="N"
       d="M 0,0 H 180 V 434 L 504,0 H 684 V 720 H 504 V 286 L 180,720 H 0 z"
       inkscape:connector-curvature="0" />
    <path
       id="S"
       d="M 15,83 C 93,14 186,0 265,0 425,0 545,156 485,292 425,428 190,445 190,525 c 0,80 180,85 300,-20 V 655 C 435,690 370,720 260,720 150,720 -35,615 30,460 95,305 330,300 330,220 330,140 150,120 15,245 z"
       inkscape:connector-curvature="0" />
  </defs>
  <g
     id="g3112"
     style="fill:#666666"
     transform="matrix(0.32162082,0,0,0.32182831,-2.2245776,-329.23729)">
    <g
       transform="matrix(0.11111111,0,0,-0.11111111,-370.55556,415)"
       id="g3114">
      <use
         xlink:href="#W"
         id="use3116"
         x="0"
         y="0"
         width="798"
         height="1050" />
      <use
         xlink:href="#I"
         x="1440"
         id="use3118"
         y="0"
         width="798"
         height="1050" />
      <use
         xlink:href="#K"
         x="1860"
         id="use3120"
         y="0"
         width="798"
         height="1050" />
      <use
         xlink:href="#I"
         x="2680"
         id="use3122"
         y="0"
         width="798"
         height="1050" />
      <use
         xlink:href="#M"
         x="3100"
         id="use3124"
         y="0"
         width="798"
         height="1050" />
      <use
         xlink:href="#E"
         x="4080"
         id="use3126"
         y="0"
         width="798"
         height="1050" />
      <use
         xlink:href="#D"
         x="4780"
         id="use3128"
         y="0"
         width="798"
         height="1050" />
      <use
         xlink:href="#I"
         x="5610"
         id="use3130"
         y="0"
         width="798"
         height="1050" />
      <use
         xlink:href="#A"
         x="5890"
         id="use3132"
         y="0"
         width="798"
         height="1050" />
    </g>
    <g
       transform="matrix(0.11111111,0,0,-0.11111111,-325.55556,515)"
       id="g3134">
      <use
         xlink:href="#C"
         id="use3136"
         x="0"
         y="0"
         width="798"
         height="1050" />
      <use
         xlink:href="#O"
         x="768"
         id="use3138"
         y="0"
         width="798"
         height="1050" />
      <use
         xlink:href="#M"
         x="1686"
         id="use3140"
         y="0"
         width="798"
         height="1050" />
      <use
         xlink:href="#M"
         x="2666"
         id="use3142"
         y="0"
         width="798"
         height="1050" />
      <use
         xlink:href="#O"
         x="3574"
         id="use3144"
         y="0"
         width="798"
         height="1050" />
      <use
         xlink:href="#N"
         x="4492"
         id="use3146"
         y="0"
         width="798"
         height="1050" />
      <use
         xlink:href="#S"
         x="5357"
         id="use3148"
         y="0"
         width="798"
         height="1050" />
    </g>
  </g>
</svg>
